<svg xmlns="http://www.w3.org/2000/svg" viewBox="0 0 640 480" width="640" height="480" role="img">
  <defs>
    <linearGradient id="fond" x1="0" y1="0" x2="1" y2="1">
      <stop offset="0" stop-color="#F1EAE0"/>
      <stop offset="1" stop-color="#D9CEBF"/>
    </linearGradient>
    <radialGradient id="lumiere" cx="0.42" cy="0.3" r="0.8">
      <stop offset="0" stop-color="#FFFFFF" stop-opacity="0.62"/>
      <stop offset="1" stop-color="#FFFFFF" stop-opacity="0"/>
    </radialGradient>
  </defs>
  <rect width="640" height="480" fill="url(#fond)"/>
  <circle cx="460.79999999999995" cy="115.19999999999999" r="201.6" fill="#FFFFFF" opacity="0.16"/>
  <circle cx="128" cy="412.8" r="182.4" fill="#5F6A56" opacity="0.11"/>
  <rect width="640" height="480" fill="url(#lumiere)"/>
  <g fill="#C4A063" opacity="0.6">
    <path d="M320 134.39999999999998 C320 191.232 339.968 211.2 396.8 211.2 C339.968 211.2 320 231.16799999999998 320 288 C320 231.16799999999998 300.032 211.2 243.2 211.2 C300.032 211.2 320 191.232 320 134.39999999999998 Z"/>
    <path d="M448 300 C448 326.64 457.36 336 484 336 C457.36 336 448 345.36 448 372 C448 345.36 438.64 336 412 336 C438.64 336 448 326.64 448 300 Z" opacity="0.8"/>
    <path d="M198.4 300.00000000000006 C198.4 319.53600000000006 205.264 326.40000000000003 224.8 326.40000000000003 C205.264 326.40000000000003 198.4 333.264 198.4 352.8 C198.4 333.264 191.536 326.40000000000003 172 326.40000000000003 C191.536 326.40000000000003 198.4 319.53600000000006 198.4 300.00000000000006 Z" opacity="0.7"/>
  </g>
  <g fill="none" stroke="#C4A063" stroke-width="1.3" opacity="0.4">
    <circle cx="320" cy="230.39999999999998" r="182.4"/>
  </g>
</svg>
